<?xml version="1.0" encoding="iso-8859-1"?>
<!-- Generator: Adobe Illustrator 16.0.0, SVG Export Plug-In . SVG Version: 6.00 Build 0)  -->
<!DOCTYPE svg PUBLIC "-//W3C//DTD SVG 1.1//EN" "http://www.w3.org/Graphics/SVG/1.1/DTD/svg11.dtd">
<svg version="1.1" id="Capa_1" xmlns="http://www.w3.org/2000/svg" xmlns:xlink="http://www.w3.org/1999/xlink" x="0px" y="0px"
	 width="44.747px" height="44.747px" viewBox="0 0 44.747 44.747" style="enable-background:new 0 0 44.747 44.747;"
	 xml:space="preserve">
<g>
	<g>
		<path d="M2.478,20.128l0.377,0.27h0.352v-0.676l1.107-0.107l1.053,0.783h1.729l0.62-0.566V18.94L7.21,18.56l-1.709,0.029
			l-0.566-0.621l-0.109-1l-0.58,0.316l-0.311,1.223l-0.837-0.893l-0.034-0.842l-0.809-0.695L1.957,15.78H1.019l0.297,0.836
			l1.127,0.629l0.197,0.207l-0.244,0.123l0.01,0.662l-0.551,0.229l-0.468-0.104l-0.294-0.415l0.762,0.041l0.207-0.277l-1.506-1.017
			c-0.149,0.569-0.272,1.148-0.377,1.734l0.381-0.029v1.242L2.478,20.128z"/>
		<path d="M40.109,33.055l0.642,1.096l0.029,0.666c2.391-3.561,3.788-7.84,3.788-12.441c0-4.47-1.321-8.634-3.589-12.131
			l-0.294,0.248l-1.701-0.274l-0.026,0.329l0.621,0.428l-0.812,0.161v0.486l-1.672,0.108l1.269,1.188l0.217,0.973l-0.568,0.297
			l-1.783-1.457v-0.677l0.434-0.676l-0.324-0.404l-1.945,1.296l-1.538-0.136l-0.513-0.377l-0.648,0.918l0.297,0.594l2.241,0.27
			l0.899,1.026l-0.225,0.298l-0.701-0.703l-0.324,0.351l0.549,0.724l-0.117,1.359l-1.439-0.003l-0.072,1.098l1.215,0.738
			l0.423,0.557l-0.64,0.172l-2.268-1.729h-0.729l0.027,1.404l1.646,1.729l0.126,1.251l-0.829,0.692l-1.889,0.677l0.188,0.701
			l-0.343,0.243l-0.387-0.594l0.055-0.459l-0.675-0.218l-0.38,0.514l0.055,0.973l1.332,1.071l0.134,0.81l-0.808,0.536l-0.611-0.063
			l-1.1-1.246l-0.218,0.865l2.08,2.971l-0.135,0.43l-2.566-2.455v-2.484l-1.942-1.729l-1.549-0.148l-0.878,0.328l-0.544,1.17
			l-0.291,2.174l-0.525,0.764L20.25,27.21l-1.633-2.687l0.096-0.991v-0.729l-0.746-0.471l-3.188-0.521l-1.468-0.071l-1.286-0.739
			l-0.09-0.774h-0.612c0,0-0.017,1.063-0.017,1.121c0,0.059,2.772,1.365,2.772,1.365l0.79,0.104l0.014,0.595l-0.742,0.483
			l-2.367,1.713l-1.134,0.074l-0.558-0.56l-0.059-0.905l-2.408-2.926L7.442,21.49l2.431,4.578l0.595,0.297l2.313-0.488l0.433,0.199
			l-2.227,3.184l-2.022,1.93l0.451,0.795l0.216,2.14l-1.026,1.403l-0.486,0.576v0.863L7.382,37.13l-0.576,1.026l-0.218,0.225
			c4.034,3.936,9.541,6.366,15.608,6.366c5.063,0,9.736-1.692,13.489-4.538l-0.333-0.732l-2.336,0.094l-2.88,0.99v-0.522
			l0.595-0.576l0.072-2.952l0.988-0.684l0.889-0.012l1.674-1.907l1.059-0.08v0.396h0.359l0.883-1.252h1.229L38.93,33.6l-0.491,0.479
			l-0.583-0.118l0.039,0.788l0.308,0.186l1.1,0.082l0.234-1.988L40.109,33.055z M12.116,35.78l-1.098,1.604l-0.557,0.897
			l-0.613-0.597v-0.951l0.45-0.523l0.306-0.467l-0.396-0.469v-0.863l1.116,0.145l0.648-1.298h0.667L12.116,35.78z M21.98,27.732
			l-0.818,0.306l-0.226-0.611l0.475-0.67l0.659,0.132L21.98,27.732z M34.036,29.654l0.014,1.754l-0.396,0.035V30.85l-0.379-0.137
			l0.072,0.839h-0.486v-1.313h0.234l-0.013-0.215L34.036,29.654z M28.372,32.038l-0.125-0.397h0.504V31.46l-0.379-0.127l-2.646-3.24
			l0.451-0.358l1.854,1.672l-0.021,0.271l0.396,0.522l1.439-0.019l0.055,0.666L29.38,30.9l-0.217-0.09l0.056,0.722l1.332-0.037
			l1.079,0.687L28.372,32.038z M32.64,32.421h-0.434v-0.239h0.434V32.421z M32.64,29.801v0.236l-0.357,0.324l-0.203,0.514h-1.586
			l-0.629-0.831v-1.01l1.885-1.021l0.248-0.224l0.209-0.562h0.326l0.106,0.555l0.223,0.093v1.778L32.64,29.801z M33.726,32.182
			L33.53,32.21v0.211h-0.27v0.168l-0.398,0.041v-0.209l0.256-0.239l0.176-0.205h0.433L33.726,32.182L33.726,32.182z M33.909,31.896
			h0.362l-0.08,0.283l-0.282-0.089V31.896z M34.8,32.389v0.221h-0.432v0.189h-0.42v-0.378h0.026l0.551-0.062l0.043-0.25l0.494-0.071
			l0.039,0.383L34.8,32.389z M38.272,32.468l-0.018-0.666h0.433l-0.019-0.323l-0.666-0.352l-1.188-0.171l-0.55-0.676l0.82-0.818
			l0.574,0.343l-0.045,0.627l0.604-0.016l0.648-0.343l2.321,1.054l0.09,1.251h0.486v0.414h-0.97v-1.026l-0.558,0.055l-0.522,0.559
			L38.272,32.468z"/>
		<path d="M2.18,12.396l-0.001,0.198l-0.136,0.068c-0.114,0.236-0.22,0.477-0.326,0.717l1.11,0.01l0.857-1.275l-0.039-0.58
			L3.036,11.25v-0.415C2.729,11.342,2.445,11.864,2.18,12.396z"/>
		<polygon points="7.455,16.065 7.15,15.914 6.987,16.169 6.245,16.255 5.904,16.36 5.591,16.713 5.591,17.669 6.011,17.612 
			7.412,17.669 8.383,17.669 8.312,17.271 7.498,16.937 		"/>
		<polygon points="11.044,18.02 10.98,18.31 11.872,18.372 11.98,18.542 12.548,18.589 12.792,18.354 12.792,17.977 12.314,17.625 
			12.314,17.085 11.208,16.347 11.252,15.946 12.136,15.995 12.106,15.563 11.485,15.304 10.758,15.366 10.578,15.78 10.612,16.616 
			11.515,17.274 11.515,17.614 		"/>
		<path d="M20.189,7.273l1.541,0.919h3.319l1.128,0.836l0.356,0.028L27.382,8.2l0.935,0.032l1.244,0.185l0.783,0.396l8.37,0.432
			l2.23,0.944C36.95,4.061,30.04,0,22.194,0C14.979,0,8.554,3.437,4.46,8.756l0.797-0.024l2.213,1.027l-0.377,0.323l-1.836,0.081
			l0.079,0.387l1.757,0.05l0.721-0.563l0.251-0.665l0.343-0.09l0.208,0.603l1.375-0.639l2.88,0.188L12.629,8.84l0.188-0.729
			l0.812,0.199l0.268,0.422l0.162,1.216l0.722-0.216l-0.019-1.215l2.344-1.048L20.189,7.273z"/>
		<path d="M4.108,9.73H3.765L3.735,9.751c-0.237,0.346-0.468,0.698-0.686,1.059l1.059-0.646V9.73z"/>
	</g>
</g>
<g>
</g>
<g>
</g>
<g>
</g>
<g>
</g>
<g>
</g>
<g>
</g>
<g>
</g>
<g>
</g>
<g>
</g>
<g>
</g>
<g>
</g>
<g>
</g>
<g>
</g>
<g>
</g>
<g>
</g>
</svg>
